<?xml version="1.0" encoding="iso-8859-1"?>
<!-- Uploaded to: SVG Repo, www.svgrepo.com, Generator: SVG Repo Mixer Tools -->
<svg version="1.1" id="Layer_1" xmlns="http://www.w3.org/2000/svg" xmlns:xlink="http://www.w3.org/1999/xlink" 
	 viewBox="0 0 512 512" xml:space="preserve">
<path style="fill:#2D64BC;" d="M271.663,298.283h-31.347v-36.034c0-9.902-8.056-17.959-17.959-17.959H98.391
	c-27.187,0-49.305-22.118-49.305-49.306s22.117-49.306,49.305-49.306h252.506c9.902,0,17.959-8.056,17.959-17.959
	s-8.056-17.958-17.959-17.958H211.903c-27.187,0-49.306-22.118-49.306-49.306V32.016h31.347v28.443
	c0,9.902,8.056,17.959,17.959,17.959h138.993c27.187,0,49.306,22.117,49.306,49.305s-22.118,49.306-49.306,49.306H98.391
	c-9.902,0-17.958,8.056-17.958,17.959s8.055,17.959,17.958,17.959h123.967c27.187,0,49.306,22.118,49.306,49.306L271.663,298.283
	L271.663,298.283z"/>
<polygon style="fill:#9BD6FF;" points="512,479.983 256,479.983 224.653,378.684 256,277.385 512,277.385 "/>
<rect y="277.389" style="fill:#C4EAFF;" width="256" height="202.595"/>
<g>
	<rect x="34.659" y="312.361" style="fill:#6499F3;" width="35.389" height="31.347"/>
	<rect x="92.85" y="312.361" style="fill:#6499F3;" width="35.388" height="31.347"/>
	<rect x="151.03" y="312.361" style="fill:#6499F3;" width="35.388" height="31.347"/>
	<rect x="209.209" y="312.361" style="fill:#6499F3;" width="35.388" height="31.347"/>
</g>
<g>
	<rect x="267.4" y="312.361" style="fill:#2D64BC;" width="35.388" height="31.347"/>
	<rect x="325.58" y="312.361" style="fill:#2D64BC;" width="35.388" height="31.347"/>
	<rect x="383.76" y="312.361" style="fill:#2D64BC;" width="35.388" height="31.347"/>
	<rect x="441.95" y="312.361" style="fill:#2D64BC;" width="35.388" height="31.347"/>
</g>
<g>
	<rect x="34.659" y="363.007" style="fill:#6499F3;" width="35.389" height="31.347"/>
	<rect x="92.85" y="363.007" style="fill:#6499F3;" width="35.388" height="31.347"/>
	<rect x="151.03" y="363.007" style="fill:#6499F3;" width="35.388" height="31.347"/>
	<rect x="209.209" y="363.007" style="fill:#6499F3;" width="35.388" height="31.347"/>
</g>
<g>
	<rect x="267.4" y="363.007" style="fill:#2D64BC;" width="35.388" height="31.347"/>
	<rect x="325.58" y="363.007" style="fill:#2D64BC;" width="35.388" height="31.347"/>
	<rect x="383.76" y="363.007" style="fill:#2D64BC;" width="35.388" height="31.347"/>
	<rect x="441.95" y="363.007" style="fill:#2D64BC;" width="35.388" height="31.347"/>
</g>
<g>
	<rect x="34.659" y="413.664" style="fill:#6499F3;" width="35.389" height="31.347"/>
	<rect x="92.85" y="413.664" style="fill:#6499F3;" width="35.388" height="31.347"/>
</g>
<rect x="151.03" y="413.664" style="fill:#2D64BC;" width="209.941" height="31.347"/>
<rect x="151.03" y="413.664" style="fill:#6499F3;" width="104.97" height="31.347"/>
<g>
	<rect x="383.76" y="413.664" style="fill:#2D64BC;" width="35.388" height="31.347"/>
	<rect x="441.95" y="413.664" style="fill:#2D64BC;" width="35.388" height="31.347"/>
</g>
</svg>